<svg width="670" height="366" viewBox="0 0 670 366" fill="none" xmlns="http://www.w3.org/2000/svg">
<g clip-path="url(#clip0_11_56)">
<path d="M600.238 364.499H156.941C150.247 364.499 144.807 358.988 144.807 352.205V99.4753C144.807 92.6929 150.247 87.181 156.941 87.181H600.238C606.931 87.181 612.371 92.6929 612.371 99.4753V352.205C612.371 358.988 606.931 364.499 600.238 364.499ZM156.941 95.1838C154.601 95.1838 152.705 97.1045 152.705 99.4753V352.205C152.705 354.576 154.601 356.497 156.941 356.497H600.238C602.577 356.497 604.473 354.576 604.473 352.205V99.4753C604.473 97.1045 602.577 95.1838 600.238 95.1838H156.941Z" fill="#D5D5D6"/>
<path d="M267.992 210.925H246.607V266.024H267.992V210.925Z" fill="#39A900"/>
<path d="M302.646 205.633H281.261V266.025H302.646V205.633Z" fill="#39A900"/>
<path d="M337.3 226.3H315.916V266.024H337.3V226.3Z" fill="#39A900"/>
<path d="M371.954 214.036H350.57V266.024H371.954V214.036Z" fill="#39A900"/>
<path d="M406.609 224.54H385.224V266.015H406.609V224.54Z" fill="#39A900"/>
<path d="M441.263 193.589H419.878V266.024H441.263V193.589Z" fill="#39A900"/>
<path d="M475.917 205.633H454.532V266.025H475.917V205.633Z" fill="#39A900"/>
<path d="M510.571 195.139H489.186V266.025H510.571V195.139Z" fill="#39A900"/>
<path d="M174.594 122.223H332.423C333.845 122.223 335 123.394 335 124.834C335 126.275 333.845 127.445 332.423 127.445H174.594C173.172 127.445 172.017 126.275 172.017 124.834C172.017 123.394 173.172 122.223 174.594 122.223Z" fill="#D5D5D6"/>
<path d="M200.773 139.249H358.603C360.024 139.249 361.179 140.42 361.179 141.86C361.179 143.301 360.024 144.471 358.603 144.471H200.773C199.351 144.471 198.196 143.301 198.196 141.86C198.196 140.42 199.351 139.249 200.773 139.249Z" fill="#D5D5D6"/>
<path d="M132.002 60.7016L151.402 67.1639V38.8638H133.799L132.002 60.7016Z" fill="#F3A3A6"/>
<path d="M149.003 46.6966C159.679 46.6966 168.334 37.9272 168.334 27.1096C168.334 16.2921 159.679 7.52267 149.003 7.52267C138.327 7.52267 129.672 16.2921 129.672 27.1096C129.672 37.9272 138.327 46.6966 149.003 46.6966Z" fill="#F3A3A6"/>
<path d="M144.076 28.6397L146.742 31.9209L151.56 23.3779C151.56 23.3779 157.711 23.698 157.711 19.0763C157.711 14.4547 163.358 14.3246 163.358 14.3246C163.358 14.3246 171.345 0.189616 154.798 3.91094C154.798 3.91094 143.316 -4.06189 137.61 2.75053C137.61 2.75053 120.105 11.6837 125.11 27.2392L133.433 43.2649L135.319 39.6336C135.319 39.6336 134.174 24.3982 144.076 28.6397Z" fill="#2F2E43"/>
<path d="M142.289 328.787H126.67V351.235H142.289V328.787Z" fill="#F3A3A6"/>
<path d="M140.562 364.089C137.886 364.339 124.528 365.4 123.857 362.299C123.244 359.448 124.143 356.467 124.271 356.066C125.555 343.122 126.029 342.972 126.315 342.882C126.769 342.752 128.102 343.382 130.254 344.792L130.392 344.883L130.422 345.043C130.462 345.243 131.419 349.994 135.941 349.274C139.041 348.774 140.048 348.084 140.374 347.744C140.107 347.623 139.782 347.413 139.555 347.043C139.219 346.513 139.16 345.833 139.377 345.023C139.959 342.872 141.707 339.691 141.776 339.561L141.973 339.2L159.725 351.335L170.684 354.506C171.513 354.746 172.175 355.346 172.511 356.146C172.975 357.267 172.688 358.567 171.8 359.378C169.805 361.188 165.856 364.299 161.7 364.68C160.594 364.78 159.133 364.82 157.494 364.82C150.632 364.82 140.631 364.099 140.552 364.089H140.562Z" fill="#2F2E43"/>
<path d="M93.5608 295.087L79.4387 312.383L91.4733 322.471L105.595 305.174L93.5608 295.087Z" fill="#F3A3A6"/>
<path d="M82.0741 331.268C79.8625 329.727 68.8937 321.924 70.3253 319.103C71.6482 316.512 74.2152 314.802 74.5706 314.572C83.7031 305.429 84.1672 305.619 84.4436 305.739C84.878 305.929 85.5 307.279 86.28 309.75L86.3294 309.9L86.2504 310.04C86.1516 310.22 83.9006 314.502 87.8399 316.863C90.5451 318.483 91.7595 318.593 92.2136 318.543C92.0853 318.283 91.9668 317.903 92.0162 317.473C92.0853 316.853 92.4703 316.282 93.1615 315.802C94.9682 314.522 98.3053 313.201 98.4534 313.141L98.8285 312.991L104.871 333.809L111.318 343.332C111.802 344.052 111.94 344.943 111.693 345.783C111.347 346.943 110.311 347.764 109.106 347.814C106.431 347.924 101.435 347.764 97.9893 345.373C97.081 344.742 95.9259 343.832 94.6621 342.772C89.3801 338.34 82.1235 331.328 82.0642 331.268H82.0741Z" fill="#2F2E43"/>
<path d="M168.117 155.635H114.546L126.453 335.059H144.313L168.127 155.635H168.117Z" fill="#2F2E43"/>
<path d="M157.207 165.519L168.117 155.635L162.657 254.32L101.652 313.121L86.4379 300.387L121.991 253.65L157.207 165.519Z" fill="#2F2E43"/>
<path d="M157.207 50.0978L130.748 45.7462L122.534 60.3014C112.088 78.808 107.833 100.236 110.39 121.393L114.546 155.655H168.117L157.207 50.1078V50.0978Z" fill="#39A900"/>
<path d="M135.724 187.947C136.82 193.479 134.776 198.531 131.172 199.231C127.559 199.921 123.748 196 122.652 190.458C122.188 188.247 122.267 185.966 122.889 183.795L118.545 160.277L129.899 158.486L132.969 181.865C134.371 183.655 135.319 185.736 135.724 187.957V187.947Z" fill="#F3A3A6"/>
<path d="M121.912 181.574L105.236 129.376V129.296L111.535 75.5468C112.503 67.3139 119.394 61.1117 127.569 61.1117C132.574 61.1117 137.215 63.4025 140.295 67.4039C143.375 71.4053 144.452 76.5172 143.237 81.4489L132.11 126.535L134.766 177.703L121.902 181.574H121.912Z" fill="#39A900"/>
</g>
<defs>
<clipPath id="clip0_11_56">
<rect width="670" height="366" fill="white"/>
</clipPath>
</defs>
</svg>
